<svg id="visual" viewBox="0 0 1440 900" width="1440" height="900" xmlns="http://www.w3.org/2000/svg" xmlns:xlink="http://www.w3.org/1999/xlink" version="1.1"><g transform="translate(699.2636454238885 443.492206462162)"><path d="M239.5 -274.8C313.2 -223.6 377.7 -150.8 368.7 -82.6C359.7 -14.5 277.3 49 226 123.6C174.7 198.1 154.6 283.7 99.5 327.1C44.3 370.6 -45.7 371.8 -133.1 347.8C-220.4 323.7 -305.1 274.4 -323.8 204.9C-342.5 135.4 -295.4 45.8 -267 -35.3C-238.7 -116.5 -229.3 -189.2 -187.9 -246.1C-146.6 -303 -73.3 -344 4.8 -349.7C82.9 -355.5 165.8 -326 239.5 -274.8" fill="#ebebeb"></path></g></svg>