<svg id="visual" viewBox="0 0 1440 900" width="1440" height="900" xmlns="http://www.w3.org/2000/svg" xmlns:xlink="http://www.w3.org/1999/xlink" version="1.1"><g transform="translate(699.8201801942436 449.11963805981844)"><path d="M204.9 -246.9C257.3 -200.3 285.7 -127.8 293.5 -55.9C301.2 16.1 288.3 87.5 260.1 163.2C231.9 238.8 188.5 318.6 127.7 333C66.9 347.4 -11.2 296.3 -83.8 257.9C-156.5 219.5 -223.7 193.8 -245.8 146.4C-267.9 99 -244.7 30 -244.4 -55.5C-244.1 -141 -266.7 -242.8 -229.8 -292.2C-192.8 -341.5 -96.4 -338.2 -10.1 -326.2C76.3 -314.2 152.6 -293.5 204.9 -246.9" fill="#ebebeb"></path></g></svg>