<svg id="visual" viewBox="0 0 1440 900" width="1440" height="900" xmlns="http://www.w3.org/2000/svg" xmlns:xlink="http://www.w3.org/1999/xlink" version="1.1"><g transform="translate(759.602442887262 496.1417390390908)"><path d="M239.8 -309.9C286.7 -246.4 284.2 -148 283.2 -63.3C282.2 21.4 282.7 92.4 255.1 153.8C227.4 215.2 171.7 266.9 108.1 284.7C44.5 302.6 -27 286.6 -96.9 262.7C-166.7 238.8 -234.9 206.9 -288.4 149.4C-341.9 92 -380.7 9 -354.3 -48.9C-327.9 -106.8 -236.3 -139.6 -166.3 -199.1C-96.4 -258.6 -48.2 -344.8 24.1 -373.5C96.4 -402.2 192.8 -373.5 239.8 -309.9" fill="#ebebeb"></path></g></svg>